<svg xmlns="http://www.w3.org/2000/svg" viewBox="0 0 16 14">
  <defs>
    <style>
      .cls-1 {
        fill: #00b89f;
      }
    </style>
  </defs>
  <path id="摄像头" class="cls-1" d="M83.441,135.16a3.309,3.309,0,0,1-.9,1.174.48.48,0,0,1,.106.55l-1.581,3.447a.464.464,0,0,1-.621.23l-1.344-.637a1.386,1.386,0,0,1-1.595.293l-2.685-1.273-.909,1.849a1.393,1.393,0,0,1-1.255.788H70.291v.475a1.416,1.416,0,0,1-1.4,1.426h-.935a.472.472,0,0,1-.468-.475v-4.755a.472.472,0,0,1,.468-.476h.935a1.407,1.407,0,0,1,1.323.951h1.583l.487-.99-2.4-1.138a2.4,2.4,0,0,1-1.131-3.159l1.186-2.586a2.325,2.325,0,0,1,3.107-1.15l10.172,4.823A.479.479,0,0,1,83.441,135.16Zm-14.553,3.568H68.42v3.8h.468a.472.472,0,0,0,.468-.475V139.2A.472.472,0,0,0,68.888,138.728Zm11.531.77,1.186-2.585-.044-.021a3.225,3.225,0,0,1-1.067.191l-.923,2.013Zm-8.337.181H70.291v.951H72.66a.464.464,0,0,0,.418-.263l.9-1.825-.848-.4-.628,1.276A.467.467,0,0,1,72.082,139.679ZM70.19,132.55l-.593,1.293a1.438,1.438,0,0,0,.678,1.9l7.629,3.617a.464.464,0,0,0,.621-.23l1-2.185a3.27,3.27,0,0,1-.438-.17Zm2.457-1.983a1.4,1.4,0,0,0-1.864.69l-.2.431,8.9,4.22a2.316,2.316,0,0,0,2.868-.739Zm4.8,7.524-1.7-.8a.479.479,0,0,1-.226-.632.464.464,0,0,1,.621-.23l1.7.8a.479.479,0,0,1,.226.632A.464.464,0,0,1,77.452,138.092Zm-4.889-2.367a.476.476,0,1,1,.468-.475.472.472,0,0,1-.468.475Zm-1.7-.8a.476.476,0,1,1,.468-.475.472.472,0,0,1-.468.475Z" transform="translate(-67.485 -129.483)"/>
</svg>
