<svg xmlns="http://www.w3.org/2000/svg" viewBox="0 0 24 21.21">
  <defs>
    <style>
      .cls-1 {
        fill: #00d285;
      }
    </style>
  </defs>
  <g id="组_11" data-name="组 11" transform="translate(-192 -198)">
    <path id="摄像头" class="cls-1" d="M87.43,136.462a4.076,4.076,0,0,1-1.121,1.443.583.583,0,0,1,.133.676l-1.976,4.238a.585.585,0,0,1-.777.283l-1.68-.783a1.754,1.754,0,0,1-1.993.36l-3.356-1.565-1.136,2.272a1.744,1.744,0,0,1-1.569.969H70.992v.585a1.756,1.756,0,0,1-1.754,1.753H68.07a.585.585,0,0,1-.585-.584v-5.845a.585.585,0,0,1,.585-.585h1.169a1.757,1.757,0,0,1,1.653,1.169H72.87l.609-1.217-3-1.4a2.926,2.926,0,0,1-1.414-3.884l1.482-3.178a2.926,2.926,0,0,1,3.884-1.414l12.715,5.928A.585.585,0,0,1,87.43,136.462Zm-18.191,4.387h-.585v4.676h.585a.585.585,0,0,0,.585-.585v-3.507A.585.585,0,0,0,69.239,140.848Zm14.414.946,1.482-3.178-.054-.025a4.094,4.094,0,0,1-1.333.235L82.593,141.3Zm-10.421.223H70.992v1.169h2.962a.581.581,0,0,0,.523-.323l1.122-2.244-1.06-.494-.785,1.569A.585.585,0,0,1,73.231,142.017Zm-2.365-8.764-.741,1.589a1.755,1.755,0,0,0,.848,2.33l9.536,4.446a.584.584,0,0,0,.777-.283l1.253-2.686a4.141,4.141,0,0,1-.547-.209Zm3.072-2.437a1.756,1.756,0,0,0-2.33.848l-.247.53,11.126,5.187a2.925,2.925,0,0,0,3.585-.908Zm6.006,9.25-2.119-.988a.585.585,0,0,1,.494-1.059l2.119.988a.585.585,0,0,1-.494,1.059Zm-6.111-2.909a.585.585,0,1,1,.585-.584.584.584,0,0,1-.585.584Zm-2.119-.988a.585.585,0,1,1,.585-.585.585.585,0,0,1-.585.585Z" transform="translate(124.515 72.517)"/>
    <path id="对号_1" class="cls-1" d="M29.626,12.826a4,4,0,1,0,4,4A4,4,0,0,0,29.626,12.826Zm1.957,3.011-2.241,2.67a.352.352,0,0,1-.5.043l-.031-.026a.361.361,0,0,1-.052-.055l-.99-.963a.352.352,0,0,1-.043-.5l.026-.032a.352.352,0,0,1,.5-.043l.79.769,1.969-2.347a.352.352,0,0,1,.5-.043l.032.026a.353.353,0,0,1,.043.5Z" transform="translate(182.374 185.174)"/>
  </g>
</svg>
