<svg xmlns="http://www.w3.org/2000/svg" viewBox="0 0 23.502 21.708">
  <defs>
    <style>
      .cls-1 {
        fill: rgba(102,102,102,0.61);
      }

      .cls-2 {
        fill: #a1a1a1;
      }
    </style>
  </defs>
  <g id="组_12" data-name="组 12" transform="translate(-162 -197.502)">
    <path id="摄像头" class="cls-1" d="M87.43,136.462a4.076,4.076,0,0,1-1.121,1.443.583.583,0,0,1,.133.676l-1.976,4.238a.585.585,0,0,1-.777.283l-1.68-.783a1.754,1.754,0,0,1-1.993.36l-3.356-1.565-1.136,2.272a1.744,1.744,0,0,1-1.569.969H70.992v.585a1.756,1.756,0,0,1-1.754,1.753H68.07a.585.585,0,0,1-.585-.584v-5.845a.585.585,0,0,1,.585-.585h1.169a1.757,1.757,0,0,1,1.653,1.169H72.87l.609-1.217-3-1.4a2.926,2.926,0,0,1-1.414-3.884l1.482-3.178a2.926,2.926,0,0,1,3.884-1.414l12.715,5.928A.585.585,0,0,1,87.43,136.462Zm-18.191,4.387h-.585v4.676h.585a.585.585,0,0,0,.585-.585v-3.507A.585.585,0,0,0,69.239,140.848Zm14.414.946,1.482-3.178-.054-.025a4.094,4.094,0,0,1-1.333.235L82.593,141.3Zm-10.421.223H70.992v1.169h2.962a.581.581,0,0,0,.523-.323l1.122-2.244-1.06-.494-.785,1.569A.585.585,0,0,1,73.231,142.017Zm-2.365-8.764-.741,1.589a1.755,1.755,0,0,0,.848,2.33l9.536,4.446a.584.584,0,0,0,.777-.283l1.253-2.686a4.141,4.141,0,0,1-.547-.209Zm3.072-2.437a1.756,1.756,0,0,0-2.33.848l-.247.53,11.126,5.187a2.925,2.925,0,0,0,3.585-.908Zm6.006,9.25-2.119-.988a.585.585,0,0,1,.494-1.059l2.119.988a.585.585,0,0,1-.494,1.059Zm-6.111-2.909a.585.585,0,1,1,.585-.584.584.584,0,0,1-.585.584Zm-2.119-.988a.585.585,0,1,1,.585-.585.585.585,0,0,1-.585.585Z" transform="translate(94.515 72.517)"/>
    <path id="叉号" class="cls-2" d="M66.391,70.39a4,4,0,1,1,4-4,4,4,0,0,1-4,4Zm1.834-5.166a.193.193,0,0,0,0-.273l-.409-.408a.192.192,0,0,0-.272,0L66.387,65.7,65.23,64.543a.192.192,0,0,0-.272,0l-.409.408a.193.193,0,0,0,0,.273l1.157,1.157L64.55,67.538a.192.192,0,0,0,0,.272l.409.409a.193.193,0,0,0,.272,0l1.157-1.157,1.157,1.157a.193.193,0,0,0,.272,0l.409-.409a.192.192,0,0,0,0-.272l-1.157-1.157,1.157-1.157Z" transform="translate(115.111 135.112)"/>
  </g>
</svg>
