<svg xmlns="http://www.w3.org/2000/svg" viewBox="0 0 18 14.442">
  <defs>
    <style>
      .cls-1, .cls-2, .cls-3, .cls-4, .cls-5 {
        fill: #fff;
      }

      .cls-1, .cls-2, .cls-3, .cls-5 {
        stroke: #39a8fe;
      }

      .cls-1, .cls-2 {
        stroke-linecap: square;
      }

      .cls-1, .cls-3, .cls-5 {
        stroke-width: 0.6px;
      }

      .cls-2 {
        stroke-width: 0.4px;
      }

      .cls-3 {
        stroke-linejoin: round;
      }

      .cls-6, .cls-8 {
        stroke: none;
      }

      .cls-7 {
        fill: none;
      }

      .cls-8 {
        fill: #39a8fe;
      }
    </style>
  </defs>
  <g id="组_105" data-name="组 105" transform="translate(-15 -110.553)">
    <g id="组_98" data-name="组 98" transform="translate(15 118.995)">
      <g id="矩形_47" data-name="矩形 47" class="cls-1" transform="translate(0)">
        <rect class="cls-6" width="18" height="6" rx="1"/>
        <rect class="cls-7" x="0.3" y="0.3" width="17.4" height="5.4" rx="0.7"/>
      </g>
      <g id="矩形_48" data-name="矩形 48" class="cls-1" transform="translate(1.8 1.8)">
        <rect class="cls-6" width="4.2" height="2.4" rx="1"/>
        <rect class="cls-7" x="0.3" y="0.3" width="3.6" height="1.8" rx="0.7"/>
      </g>
      <g id="矩形_51" data-name="矩形 51" class="cls-1" transform="translate(7.2 1.8)">
        <rect class="cls-6" width="4.2" height="2.4" rx="1"/>
        <rect class="cls-7" x="0.3" y="0.3" width="3.6" height="1.8" rx="0.7"/>
      </g>
      <g id="矩形_50" data-name="矩形 50" class="cls-2" transform="translate(13.2 2.4)">
        <rect class="cls-6" width="3" height="1.2" rx="0.6"/>
        <rect class="cls-7" x="0.2" y="0.2" width="2.6" height="0.8" rx="0.4"/>
      </g>
    </g>
    <g id="组_101" data-name="组 101" transform="translate(18.687 110.853)">
      <g id="组_100" data-name="组 100" transform="translate(0 0)">
        <path id="路径_24" data-name="路径 24" class="cls-3" d="M4705.535,1679.829h2.442v2.872h-4.639Z" transform="translate(-4699.119 -1678.2)"/>
        <path id="路径_22" data-name="路径 22" class="cls-3" d="M4697.11,1680.628l-.014-2.775h8.56l-1.085,2.561Z" transform="translate(-4697.097 -1677.853)"/>
        <path id="路径_23" data-name="路径 23" class="cls-3" d="M4697.117,1683.623v-2.849h7.426v2.849Z" transform="translate(-4697.104 -1678.367)"/>
        <g id="路径_25" data-name="路径 25" class="cls-4" transform="translate(1.398 3.41)">
          <path class="cls-6" d="M-.006.047A.381.381,0,0,1,.332.459.381.381,0,0,1-.006.871.381.381,0,0,1-.344.459.381.381,0,0,1-.006.047Z"/>
          <path class="cls-8" d="M -0.005719691514968872 0.04687875509262085 C 0.180970311164856 0.04687875509262085 0.3323103189468384 0.2313787937164307 0.3323103189468384 0.4589787721633911 C 0.3323103189468384 0.6865787506103516 0.180970311164856 0.8710787892341614 -0.005719691514968872 0.8710787892341614 C -0.1924096941947937 0.8710787892341614 -0.3437497019767761 0.6865787506103516 -0.3437497019767761 0.4589787721633911 C -0.3437497019767761 0.2313787937164307 -0.1924096941947937 0.04687875509262085 -0.005719691514968872 0.04687875509262085 Z"/>
        </g>
        <g id="路径_26" data-name="路径 26" class="cls-4" transform="translate(2.75 3.41)">
          <path class="cls-6" d="M-.006.047A.381.381,0,0,1,.332.459.381.381,0,0,1-.006.871.381.381,0,0,1-.344.459.381.381,0,0,1-.006.047Z"/>
          <path class="cls-8" d="M -0.005719691514968872 0.04687875509262085 C 0.180970311164856 0.04687875509262085 0.3323103189468384 0.2313787937164307 0.3323103189468384 0.4589787721633911 C 0.3323103189468384 0.6865787506103516 0.180970311164856 0.8710787892341614 -0.005719691514968872 0.8710787892341614 C -0.1924096941947937 0.8710787892341614 -0.3437497019767761 0.6865787506103516 -0.3437497019767761 0.4589787721633911 C -0.3437497019767761 0.2313787937164307 -0.1924096941947937 0.04687875509262085 -0.005719691514968872 0.04687875509262085 Z"/>
        </g>
        <g id="路径_27" data-name="路径 27" class="cls-4" transform="translate(6.996 3.41)">
          <path class="cls-6" d="M -1.329607486724854 0.5710787773132324 L -2.673460483551025 0.5710787773132324 C -2.687344074249268 0.5623730421066284 -2.715624094009399 0.5222388505935669 -2.715624094009399 0.4589787721633911 C -2.715624094009399 0.3957186937332153 -2.687344074249268 0.3555845320224762 -2.673460483551025 0.3468787670135498 L -1.329607486724854 0.3468787670135498 C -1.315723776817322 0.3555845320224762 -1.287443995475769 0.3957186937332153 -1.287443995475769 0.4589787721633911 C -1.287443995475769 0.5222388505935669 -1.315723776817322 0.5623730421066284 -1.329607486724854 0.5710787773132324 Z"/>
          <path class="cls-8" d="M -2.677593946456909 0.04687875509262085 L -1.32547402381897 0.04687875509262085 C -1.138783931732178 0.04687875509262085 -0.9874439239501953 0.2313787937164307 -0.9874439239501953 0.4589787721633911 C -0.9874439239501953 0.6865787506103516 -1.138783931732178 0.8710787892341614 -1.32547402381897 0.8710787892341614 L -2.677593946456909 0.8710787892341614 C -2.864284038543701 0.8710787892341614 -3.015624046325684 0.6865787506103516 -3.015624046325684 0.4589787721633911 C -3.015624046325684 0.2313787937164307 -2.864284038543701 0.04687875509262085 -2.677593946456909 0.04687875509262085 Z"/>
        </g>
      </g>
      <g id="矩形_55" data-name="矩形 55" class="cls-5" transform="translate(2.638 5.066)">
        <rect class="cls-6" width="2.704" height="2.397"/>
        <rect class="cls-7" x="0.3" y="0.3" width="2.104" height="1.797"/>
      </g>
      <g id="矩形_56" data-name="矩形 56" class="cls-5" transform="translate(0.61 6.639)">
        <path class="cls-6" d="M1.573,0H5.188A1.573,1.573,0,0,1,6.761,1.573v0a0,0,0,0,1,0,0H0a0,0,0,0,1,0,0v0A1.573,1.573,0,0,1,1.573,0Z"/>
        <path class="cls-7" d="M1.127.3H5.634a.827.827,0,0,1,.827.827v0a.146.146,0,0,1-.146.146H.446A.146.146,0,0,1,.3,1.127v0A.827.827,0,0,1,1.127.3Z"/>
      </g>
    </g>
  </g>
</svg>
