<svg xmlns="http://www.w3.org/2000/svg" viewBox="0 0 32 23">
  <defs>
    <style>
      .cls-1 {
        fill: #00d285;
      }
    </style>
  </defs>
  <g id="网络设备" transform="translate(-64 -311.7)">
    <path id="路径_3" data-name="路径 3" class="cls-1" d="M96,321.128l-2.364-8.449A1.14,1.14,0,0,0,92.5,311.7H67.564a1.143,1.143,0,0,0-1.132.975L64,321.128h.025l-.025.028V333.4a1.3,1.3,0,0,0,1.307,1.3H94.693A1.3,1.3,0,0,0,96,333.4V321.156l-.025-.028Zm-2.285,11.3H66.285v-11.3H93.711Z" transform="translate(0)"/>
    <path id="路径_4" data-name="路径 4" class="cls-1" d="M192.771,646.051H195.8a.77.77,0,0,0,.771-.766v-.716a.77.77,0,0,0-.771-.766h-3.028a.77.77,0,0,0-.771.766v.716A.77.77,0,0,0,192.771,646.051Zm0,4.521H195.8a.77.77,0,0,0,.771-.766v-.716a.77.77,0,0,0-.771-.766h-3.028a.77.77,0,0,0-.771.766v.716A.768.768,0,0,0,192.771,650.572Zm7.181-4.521h.025a1.128,1.128,0,0,0,1.132-1.124v0a1.128,1.128,0,0,0-1.132-1.124h-.025a1.128,1.128,0,0,0-1.132,1.124v0A1.128,1.128,0,0,0,199.953,646.051Zm0,4.521h.025a1.128,1.128,0,0,0,1.132-1.124v0a1.128,1.128,0,0,0-1.132-1.124h-.025a1.128,1.128,0,0,0-1.132,1.124v0A1.126,1.126,0,0,0,199.953,650.572Zm4.571-4.521h.025a1.128,1.128,0,0,0,1.132-1.124v0a1.128,1.128,0,0,0-1.132-1.124h-.025a1.128,1.128,0,0,0-1.132,1.124v0A1.128,1.128,0,0,0,204.524,646.051Zm0,4.521h.025a1.128,1.128,0,0,0,1.132-1.124v0a1.128,1.128,0,0,0-1.132-1.124h-.025a1.128,1.128,0,0,0-1.132,1.124v0A1.126,1.126,0,0,0,204.524,650.572Zm4.535-4.521h.025a1.128,1.128,0,0,0,1.132-1.124v0a1.128,1.128,0,0,0-1.132-1.124h-.025a1.128,1.128,0,0,0-1.132,1.124v0A1.128,1.128,0,0,0,209.059,646.051Zm0,4.521h.025a1.128,1.128,0,0,0,1.132-1.124v0a1.128,1.128,0,0,0-1.132-1.124h-.025a1.128,1.128,0,0,0-1.132,1.124v0A1.126,1.126,0,0,0,209.059,650.572Zm4.571-4.521h.025a1.128,1.128,0,0,0,1.132-1.124v0a1.128,1.128,0,0,0-1.132-1.124h-.025a1.128,1.128,0,0,0-1.132,1.124v0A1.128,1.128,0,0,0,213.63,646.051Zm0,4.521h.025a1.128,1.128,0,0,0,1.132-1.124v0a1.128,1.128,0,0,0-1.132-1.124h-.025a1.128,1.128,0,0,0-1.132,1.124v0A1.126,1.126,0,0,0,213.63,650.572Z" transform="translate(-123.429 -320.325)"/>
  </g>
</svg>
