<svg xmlns="http://www.w3.org/2000/svg" viewBox="0 0 24 24">
  <defs>
    <style>
      .cls-1 {
        fill: #a1a1a1;
      }

      .cls-2 {
        fill: #fff;
      }
    </style>
  </defs>
  <g id="组_22" data-name="组 22" transform="translate(-136 -476)">
    <circle id="椭圆_6" data-name="椭圆 6" class="cls-1" cx="12" cy="12" r="12" transform="translate(136 476)"/>
    <path id="路径_8" data-name="路径 8" class="cls-2" d="M-4.3-13.1a4.043,4.043,0,0,1,2.808.954A3.227,3.227,0,0,1-.414-9.576,3.476,3.476,0,0,1-1.1-7.38a18.427,18.427,0,0,1-1.512,1.4,2.773,2.773,0,0,0-.756.936,2.418,2.418,0,0,0-.288,1.188v.306H-5.58v-.306a3.579,3.579,0,0,1,.36-1.71A9.283,9.283,0,0,1-3.186-7.794l.306-.342a2.129,2.129,0,0,0,.5-1.314A2.073,2.073,0,0,0-2.9-10.926a2.069,2.069,0,0,0-1.53-.54,2,2,0,0,0-1.764.774,3.011,3.011,0,0,0-.486,1.836h-1.89a4.183,4.183,0,0,1,1.134-3.1A4.2,4.2,0,0,1-4.3-13.1Zm-.324,10.53a1.29,1.29,0,0,1,.954.36,1.177,1.177,0,0,1,.378.918,1.28,1.28,0,0,1-.4.936A1.345,1.345,0,0,1-4.626,0a1.271,1.271,0,0,1-.936-.378A1.25,1.25,0,0,1-5.94-1.3a1.177,1.177,0,0,1,.378-.918A1.266,1.266,0,0,1-4.626-2.574Z" transform="translate(152 495)"/>
  </g>
</svg>
