<svg xmlns="http://www.w3.org/2000/svg" viewBox="0 0 16 12">
  <defs>
    <style>
      .cls-1 {
        fill: #00b89f;
      }
    </style>
  </defs>
  <g id="组_120" data-name="组 120" transform="translate(-136 -393.694)">
    <path id="路径_3" data-name="路径 3" class="cls-1" d="M80,316.619l-1.182-4.408a.578.578,0,0,0-.566-.511H65.782a.58.58,0,0,0-.566.509L64,316.619h.013l-.013.015v6.389a.666.666,0,0,0,.653.677H79.346a.666.666,0,0,0,.654-.677v-6.389l-.012-.015Zm-1.143,5.9H65.143v-5.9H78.855Z" transform="translate(72 81.994)"/>
    <path id="路径_4" data-name="路径 4" class="cls-1" d="M192.386,644.975H193.9a.394.394,0,0,0,.386-.4V644.2a.394.394,0,0,0-.386-.4h-1.514a.393.393,0,0,0-.386.4v.374A.394.394,0,0,0,192.386,644.975Zm0,2.358H193.9a.393.393,0,0,0,.386-.4v-.374a.394.394,0,0,0-.386-.4h-1.514a.394.394,0,0,0-.386.4v.374A.392.392,0,0,0,192.386,647.333Zm3.591-2.358h.012a.577.577,0,0,0,.566-.586v0a.577.577,0,0,0-.566-.586h-.012a.577.577,0,0,0-.566.586v0A.577.577,0,0,0,195.976,644.975Zm0,2.358h.012a.577.577,0,0,0,.566-.586v0a.577.577,0,0,0-.566-.586h-.012a.577.577,0,0,0-.566.586v0A.575.575,0,0,0,195.976,647.333Zm2.285-2.358h.013a.577.577,0,0,0,.566-.586v0a.577.577,0,0,0-.566-.586h-.013a.577.577,0,0,0-.566.586v0A.577.577,0,0,0,198.262,644.975Zm0,2.358h.013a.577.577,0,0,0,.566-.586v0a.577.577,0,0,0-.566-.586h-.013a.577.577,0,0,0-.566.586v0A.575.575,0,0,0,198.262,647.333Zm2.268-2.358h.012a.577.577,0,0,0,.566-.586v0a.577.577,0,0,0-.566-.586h-.012a.577.577,0,0,0-.566.586v0A.577.577,0,0,0,200.529,644.975Zm0,2.358h.012a.577.577,0,0,0,.566-.586v0a.577.577,0,0,0-.566-.586h-.012a.577.577,0,0,0-.566.586v0A.575.575,0,0,0,200.529,647.333Zm2.285-2.358h.013a.577.577,0,0,0,.566-.586v0a.577.577,0,0,0-.566-.586h-.013a.577.577,0,0,0-.566.586v0A.577.577,0,0,0,202.815,644.975Zm0,2.358h.013a.577.577,0,0,0,.566-.586v0a.577.577,0,0,0-.566-.586h-.013a.577.577,0,0,0-.566.586v0A.575.575,0,0,0,202.815,647.333Z" transform="translate(-53.715 -243.962)"/>
  </g>
</svg>
