<?xml version="1.0" standalone="no"?><!DOCTYPE svg PUBLIC "-//W3C//DTD SVG 1.1//EN" "http://www.w3.org/Graphics/SVG/1.1/DTD/svg11.dtd"><svg width="48" height="48" viewBox="0 0 200 200" version="1.1" xmlns="http://www.w3.org/2000/svg" xmlns:xlink="http://www.w3.org/1999/xlink"><defs><style type="text/css"><![CDATA[
@font-face { font-family: ifont; src: url("//at.alicdn.com/t/font_1442373896_4754455.eot?#iefix") format("embedded-opentype"), url("//at.alicdn.com/t/font_1442373896_4754455.woff") format("woff"), url("//at.alicdn.com/t/font_1442373896_4754455.ttf") format("truetype"), url("//at.alicdn.com/t/font_1442373896_4754455.svg#ifont") format("svg"); }

]]></style></defs><g class="transform-group"><g transform="scale(0.1953125, 0.1953125)"><path d="M578.236052 421.891749 337.761142 421.891749c-7.384178 0-13.360286-5.982248-13.360286-13.359262 0-7.378038 5.975085-13.360286 13.360286-13.360286l240.47491 0c7.384178 0 13.360286 5.982248 13.360286 13.360286C591.596338 415.910525 585.620229 421.891749 578.236052 421.891749zM685.114245 421.891749l-40.079834 0c-7.384178 0-13.360286-5.982248-13.360286-13.359262 0-7.378038 5.976108-13.360286 13.360286-13.360286l40.079834 0c7.384178 0 13.359262 5.982248 13.359262 13.360286C698.473507 415.910525 692.498422 421.891749 685.114245 421.891749zM498.077408 555.490513l-146.957003 0c-7.384178 0-13.360286-5.976108-13.360286-13.361309 0-7.377014 5.975085-13.359262 13.360286-13.359262l146.957003 0c7.384178 0 13.359262 5.982248 13.359262 13.359262C511.437693 549.514405 505.462608 555.490513 498.077408 555.490513zM578.236052 555.490513l-26.719548 0c-7.384178 0-13.359262-5.976108-13.359262-13.361309 0-7.377014 5.975085-13.359262 13.359262-13.359262l26.719548 0c7.384178 0 13.360286 5.982248 13.360286 13.359262C591.596338 549.514405 585.620229 555.490513 578.236052 555.490513zM274.34174 729.322607c-92.161003-65.455781-143.369292-159.352311-140.472312-257.605056 5.101181-172.965353 177.446411-319.094502 376.342344-319.094502 70.425979 0 137.784086 18.415418 195.581444 49.590442-0.404206-4.168949-0.639566-8.389064-0.639566-12.662391 0-15.721053 2.975774-30.711466 8.18031-44.61922-60.888765-29.074176-130.231063-45.747927-203.122187-45.747927-227.024573 0-423.831938 169.880085-429.754834 370.953613-3.432169 116.428709 55.95643 226.77591 162.938999 302.760488 12.042267 8.55791 28.702716 5.714142 37.261649-6.315846C289.20117 754.555292 286.370705 737.868237 274.34174 729.322607zM836.168566 317.011051c31.794124 46.223764 50.359968 98.958826 50.359968 153.917532 0 182.882214-168.81073 331.664795-376.316761 331.664795-4.488221 0-8.897647 1.121544-12.837376 3.273557l-121.360022 66.447365 0.678452-1.616824c10.476609-22.074761 24.684192-62.482053 2.12643-85.064374-10.437723-10.4367-27.359115-10.425444-37.795814 0-9.028631 9.027607-10.254551 22.908756-3.653203 33.255405-0.352017 6.066159-4.383844 19.178805-9.471722 30.045293l-30.528294 73.100902c-4.370541 10.476609-1.657756 22.571065 6.783497 30.163997 5.02341 4.527107 11.428284 6.848988 17.874089 6.848988 4.397147 0 8.806573-1.069355 12.837376-3.273557l182.275393-99.793844c233.781464-3.340071 422.826028-174.771489 422.826028-385.05068 0-60.086493-17.612123-117.347638-48.350195-168.190607C874.941638 311.419705 856.128153 316.482001 836.168566 317.011051zM955.623191 177.502693c0 61.788252-50.100048 111.874997-111.87602 111.874997-61.788252 0-111.873973-50.085722-111.873973-111.874997 0-61.782112 50.085722-111.867834 111.873973-111.867834C905.523143 65.63486 955.623191 115.720581 955.623191 177.502693z" fill="#86bdf5"></path></g></g></svg>