<svg xmlns="http://www.w3.org/2000/svg" viewBox="0 0 8 8">
  <defs>
    <style>
      .cls-1 {
        fill: #a1a1a1;
      }
    </style>
  </defs>
  <path id="叉号" class="cls-1" d="M66.391,70.39a4,4,0,1,1,4-4,4,4,0,0,1-4,4Zm1.834-5.166a.193.193,0,0,0,0-.273l-.409-.408a.192.192,0,0,0-.272,0L66.387,65.7,65.23,64.543a.192.192,0,0,0-.272,0l-.409.408a.193.193,0,0,0,0,.273l1.157,1.157L64.55,67.538a.192.192,0,0,0,0,.272l.409.409a.193.193,0,0,0,.272,0l1.157-1.157,1.157,1.157a.193.193,0,0,0,.272,0l.409-.409a.192.192,0,0,0,0-.272l-1.157-1.157,1.157-1.157Z" transform="translate(-62.391 -62.39)"/>
</svg>
