<svg xmlns="http://www.w3.org/2000/svg" viewBox="0 0 8 8">
  <defs>
    <style>
      .cls-1 {
        fill: #00b89f;
      }
    </style>
  </defs>
  <path id="对号_1" class="cls-1" d="M29.626,12.826a4,4,0,1,0,4,4A4,4,0,0,0,29.626,12.826Zm1.957,3.011-2.241,2.67a.352.352,0,0,1-.5.043l-.031-.026a.361.361,0,0,1-.052-.055l-.99-.963a.352.352,0,0,1-.043-.5l.026-.032a.352.352,0,0,1,.5-.043l.79.769,1.969-2.347a.352.352,0,0,1,.5-.043l.032.026a.353.353,0,0,1,.043.5Z" transform="translate(-25.626 -12.826)"/>
</svg>
