<?xml version="1.0" standalone="no"?><!DOCTYPE svg PUBLIC "-//W3C//DTD SVG 1.1//EN" "http://www.w3.org/Graphics/SVG/1.1/DTD/svg11.dtd"><svg width="48" height="48" viewBox="0 0 48 48" version="1.1" xmlns="http://www.w3.org/2000/svg" xmlns:xlink="http://www.w3.org/1999/xlink"><defs><style type="text/css"><![CDATA[
@font-face { font-family: ifont; src: url("//at.alicdn.com/t/font_1442373896_4754455.eot?#iefix") format("embedded-opentype"), url("//at.alicdn.com/t/font_1442373896_4754455.woff") format("woff"), url("//at.alicdn.com/t/font_1442373896_4754455.ttf") format("truetype"), url("//at.alicdn.com/t/font_1442373896_4754455.svg#ifont") format("svg"); }

]]></style></defs><g class="transform-group"><g transform="scale(0.032, 0.032)"><path d="M512 1024C229.337332 1024 0.187037 794.770952 0.187037 512.009844 0.187037 229.229048 229.337332 0 512 0 794.662668 0 1023.812963 229.229048 1023.812963 512.009844 1023.812963 794.770952 794.662668 1024 512 1024ZM512 39.395974C251.073042 39.395974 39.543635 250.984446 39.543635 512.009844 39.543635 773.015554 251.073042 984.623714 512 984.623714 772.926958 984.623714 984.456365 773.015554 984.456365 512.009844 984.456365 250.984446 772.926958 39.395974 512 39.395974ZM841.126685 347.987926 464.984715 723.007671C457.424468 730.508854 445.198131 730.508854 437.657572 723.007671L222.249601 508.308473C214.689354 500.787603 214.689354 488.62033 222.249601 481.119148 229.79016 473.598277 242.036185 473.598277 249.576743 481.119148L451.321144 682.194151 813.799542 320.7986C821.340101 313.27773 833.586126 313.27773 841.126685 320.7986 848.686932 328.299783 848.686932 340.467055 841.126685 347.987926Z" fill="#ffffff"></path></g></g></svg>