<?xml version="1.0" standalone="no"?><!DOCTYPE svg PUBLIC "-//W3C//DTD SVG 1.1//EN" "http://www.w3.org/Graphics/SVG/1.1/DTD/svg11.dtd"><svg width="48" height="48" viewBox="0 0 48 48" version="1.1" xmlns="http://www.w3.org/2000/svg" xmlns:xlink="http://www.w3.org/1999/xlink"><defs><style type="text/css"><![CDATA[
@font-face { font-family: ifont; src: url("//at.alicdn.com/t/font_1442373896_4754455.eot?#iefix") format("embedded-opentype"), url("//at.alicdn.com/t/font_1442373896_4754455.woff") format("woff"), url("//at.alicdn.com/t/font_1442373896_4754455.ttf") format("truetype"), url("//at.alicdn.com/t/font_1442373896_4754455.svg#ifont") format("svg"); }

]]></style></defs><g class="transform-group"><g transform="scale(0.032, 0.032)"><path d="M512.264525 3.288906c-280.382828 0-507.628436 227.275283-507.628436 507.625366 0 280.347013 227.245607 507.622296 507.628436 507.622296 280.417621 0 507.621273-227.275283 507.621273-507.622296C1019.884774 230.563166 792.6494 3.288906 512.264525 3.288906L512.264525 3.288906 512.264525 3.288906zM837.001537 373.732913 497.013169 719.826326c-20.326954 20.652366-47.548946 32.228005-76.702939 32.522718l-1.054005 0c-28.747741 0-55.793724-11.037381-76.267011-31.075763L187.954231 569.245795c-14.33959-14.044878-14.522762-37.020148-0.509606-51.331086 14.049994-14.299681 37.030381-14.557554 51.331086-0.503467l155.033959 152.024415c6.79373 6.680143 15.830547 10.30674 25.446555 10.30674l0.367367 0c9.763364-0.103354 18.835997-3.917216 25.588795-10.777461l339.990414-346.126158c14.048971-14.300704 37.029358-14.407128 51.330062-0.468674C850.873476 336.412936 851.050508 359.399463 837.001537 373.732913L837.001537 373.732913 837.001537 373.732913zM837.001537 373.732913" fill="#00c4ff"></path></g></g></svg>