<?xml version="1.0" standalone="no"?><!DOCTYPE svg PUBLIC "-//W3C//DTD SVG 1.1//EN" "http://www.w3.org/Graphics/SVG/1.1/DTD/svg11.dtd"><svg t="1489637025462" class="icon" style="" viewBox="0 0 1024 1024" version="1.1" xmlns="http://www.w3.org/2000/svg" p-id="29107" xmlns:xlink="http://www.w3.org/1999/xlink" width="200" height="200"><defs><style type="text/css"></style></defs><path d="M750.933333 428.168533l102.382933 0c9.489067 0 17.083733 7.68 17.083733 17.152 0 9.540267-7.645867 17.152-17.083733 17.152L750.933333 462.472533l0 102.946133c0 9.489067-7.5776 17.169067-17.066667 17.169067-9.4208 0-17.066667-7.6288-17.066667-17.169067l0-102.946133-102.382933 0c-9.489067 0-17.083733-7.68-17.083733-17.152 0-9.540267 7.645867-17.152 17.083733-17.152L716.8 428.168533l0-102.946133c0-9.489067 7.5776-17.169067 17.066667-17.169067 9.4208 0 17.066667 7.6288 17.066667 17.169067L750.933333 428.168533 750.933333 428.168533M290.167467 325.205333l170.581333 0c9.454933 0 17.1008 7.611733 17.1008 17.152 0 9.472-7.7824 17.152-17.1008 17.152l-170.581333 0c-9.454933 0-17.1008-7.611733-17.1008-17.152C273.066667 332.885333 280.849067 325.205333 290.167467 325.205333L290.167467 325.205333M290.167467 496.7936l170.581333 0c9.454933 0 17.1008 7.611733 17.1008 17.152 0 9.472-7.7824 17.152-17.1008 17.152l-170.581333 0c-9.454933 0-17.1008-7.611733-17.1008-17.152C273.066667 504.490667 280.849067 496.7936 290.167467 496.7936L290.167467 496.7936M580.317867 630.152533 580.266667 630.152533l-0.085333 206.660267-194.935467-169.557333c-5.12-3.584-11.758933-4.027733-17.271467-1.348267L170.666667 834.389333 170.666667 204.663467c0.3072-9.745067 7.816533-17.015467 17.066667-17.015467l375.466667 0c9.489067 0 17.066667 7.543467 17.066667 17.015467l0 51.899733c0 9.472 7.645867 17.152 17.066667 17.152s17.066667-7.68 17.066667-18.005333l0-51.063467C613.4272 175.4112 590.916267 153.6 563.2 153.6L187.733333 153.6c-28.296533 0-51.2 22.818133-51.2 51.063467L136.533333 834.389333c0 26.5728 17.988267 38.5536 44.202667 35.584 0.494933-0.0512 194.8672-165.8368 194.8672-165.8368s180.002133 154.7264 181.76 156.091733c1.314133 1.006933 2.4064 1.809067 3.601067 2.6112 1.4336 0.955733 1.4336 0.955733 5.376 2.952533 3.208533 1.536 3.208533 1.536 13.533867 2.952533 8.891733-0.290133 8.891733-0.290133 22.528-8.192 10.922667-13.9264 10.922667-13.9264 12.014933-26.146133L614.417067 630.152533l-0.0512 0C613.6832 621.346133 606.3104 614.4 597.333333 614.4S580.983467 621.346133 580.317867 630.152533" p-id="29108" fill="#ffffff"></path></svg>