<?xml version="1.0" standalone="no"?><!DOCTYPE svg PUBLIC "-//W3C//DTD SVG 1.1//EN" "http://www.w3.org/Graphics/SVG/1.1/DTD/svg11.dtd"><svg t="1489636797882" class="icon" style="" viewBox="0 0 1024 1024" version="1.1" xmlns="http://www.w3.org/2000/svg" p-id="20767" xmlns:xlink="http://www.w3.org/1999/xlink" width="200" height="200"><defs><style type="text/css"></style></defs><path d="M866.134041 961.5159 160.169421 961.5159c-44.316322 0-110.506836-37.755905-110.506836-90.453105L49.662585 165.088966c0-52.2889 65.640999-85.663008 110.506836-85.663008l287.559275 0 0 44.002167-287.559275 0c-27.565822 0-67.527976 21.064758-67.527976 41.660842l0 705.974853c0 20.509103 38.572504 47.474244 67.527976 47.474244l705.96462 0c8.886391 0 22.639626-0.765433 22.639626-47.474244L888.773667 566.519708l44.002167 0 0 304.543088C932.775834 946.145841 896.445394 961.5159 866.134041 961.5159z" p-id="20768" fill="#ffffff"></path><path d="M351.376231 764.017804l-44.122917 0c0-177.031972 48.711422-311.738977 144.777361-397.24849 110.015649-97.918124 279.817963-136.911206 504.739643-110.636796l-5.127787 42.497906c-211.779358-24.689309-370.07664 12.586666-470.279806 101.769848C395.110291 477.16154 351.376231 586.985832 351.376231 764.017804z" p-id="20769" fill="#ffffff"></path><path d="M782.628162 478.353692 751.431649 447.158203 923.462724 275.105638 750.979348 92.15077 783.07944 61.881372 984.951147 276.010241Z" p-id="20770" fill="#ffffff"></path></svg>